ply
format ascii 1.0
element vertex 7
property float x
property float y
property float z
end_header
1.3520153716758563 -0.8623048453411811 4.811129285131902 
0.9083917753516516 0.9286922079539294 3.7365432696682297 
1.6321136468427953 0.7445729984213603 4.438026162357092 
1.6015340262034008 -0.8015057953561657 4.586331076337182 
0.4152737360290549 0.5402350379805078 4.1987788479694625 
-0.11231227207128189 0.039410654739856506 3.9397709072873535 
1.599775058457342 -0.004414547159993808 4.800638400542803 

