ply
format ascii 1.0
element vertex 7
property float x
property float y
property float z
end_header
0.5960585081930515 0.18476872982570544 4.317825945012162 
1.6576748828775343 -0.7553305719126475 4.6918009420913815 
1.8990956972211108 -0.6920475129374349 4.4639001164603265 
2.1345547451038533 0.22579937208173326 4.681316245984427 
2.089548272921154 0.9517845519830294 4.288961404134818 
1.63551447481667 1.081527816353338 3.5545028598693085 
0.6678793739669596 1.5242060696292627 6.120504893796535 

