ply
format ascii 1.0
element vertex 7
property float x
property float y
property float z
end_header
-0.11231227207128197 0.03941065473985788 3.9397709072873552 
1.352015371675857 -0.8623048453411809 4.8111292851319 
1.6015340262034 -0.8015057953561628 4.586331076337177 
1.599775058457342 -0.004414547159992662 4.800638400542803 
1.6321136468427955 0.7445729984213603 4.43802616235709 
0.9083917753516517 0.928692207953931 3.7365432696682297 
0.17738025899537588 0.7132076506442498 4.410348892694393 

